<mxfile host="app.diagrams.net" modified="2024-01-10T17:27:31.629Z" agent="Mozilla/5.0 (Macintosh; Intel Mac OS X 10_15_7) AppleWebKit/605.1.15 (KHTML, like Gecko) Version/17.2.1 Safari/605.1.15" etag="HC_uskvisazoRakBQ1lS" version="22.1.17" type="device">
  <diagram name="Page-1" id="Zg2J0i8kcsBhqcDElQuv">
    <mxGraphModel dx="1207" dy="847" grid="1" gridSize="10" guides="1" tooltips="1" connect="1" arrows="1" fold="1" page="1" pageScale="1" pageWidth="850" pageHeight="1100" math="1" shadow="0">
      <root>
        <mxCell id="0" />
        <mxCell id="1" parent="0" />
        <mxCell id="kov3exJGOiLsOatTBzYe-4" value="&lt;font style=&quot;font-size: 10px;&quot;&gt;$$32 \times 1120$$&lt;/font&gt;" style="text;html=1;align=center;verticalAlign=middle;resizable=0;points=[];autosize=1;strokeColor=none;fillColor=none;rotation=-90;" parent="1" vertex="1">
          <mxGeometry x="-5" y="240" width="110" height="30" as="geometry" />
        </mxCell>
        <mxCell id="kov3exJGOiLsOatTBzYe-5" value="1" style="text;html=1;align=center;verticalAlign=middle;resizable=0;points=[];autosize=1;strokeColor=none;fillColor=none;rotation=0;" parent="1" vertex="1">
          <mxGeometry x="46.5" y="50" width="30" height="30" as="geometry" />
        </mxCell>
        <mxCell id="kov3exJGOiLsOatTBzYe-10" value="" style="shape=flexArrow;endArrow=classic;html=1;rounded=0;fillColor=#000066;strokeColor=#000066;endWidth=7;endSize=6.38;" parent="1" edge="1">
          <mxGeometry width="50" height="50" relative="1" as="geometry">
            <mxPoint x="65" y="179.5" as="sourcePoint" />
            <mxPoint x="95" y="180" as="targetPoint" />
          </mxGeometry>
        </mxCell>
        <mxCell id="kov3exJGOiLsOatTBzYe-54" value="" style="shape=flexArrow;endArrow=classic;html=1;rounded=0;fillColor=#000066;strokeColor=#000066;endWidth=7;endSize=6.38;entryX=0;entryY=0.5;entryDx=0;entryDy=0;" parent="1" edge="1">
          <mxGeometry width="50" height="50" relative="1" as="geometry">
            <mxPoint x="145" y="379.5" as="sourcePoint" />
            <mxPoint x="175" y="380" as="targetPoint" />
          </mxGeometry>
        </mxCell>
        <mxCell id="kov3exJGOiLsOatTBzYe-59" value="" style="shape=flexArrow;endArrow=classic;html=1;rounded=0;fillColor=#000066;strokeColor=#000066;endWidth=7;endSize=6.38;entryX=0;entryY=0.5;entryDx=0;entryDy=0;" parent="1" edge="1">
          <mxGeometry width="50" height="50" relative="1" as="geometry">
            <mxPoint x="225" y="504.5" as="sourcePoint" />
            <mxPoint x="255" y="505" as="targetPoint" />
          </mxGeometry>
        </mxCell>
        <mxCell id="kov3exJGOiLsOatTBzYe-63" value="" style="shape=flexArrow;endArrow=classic;html=1;rounded=0;fillColor=#660000;strokeColor=#660000;endWidth=7;endSize=6.38;" parent="1" edge="1">
          <mxGeometry width="50" height="50" relative="1" as="geometry">
            <mxPoint x="142" y="290" as="sourcePoint" />
            <mxPoint x="142" y="320" as="targetPoint" />
          </mxGeometry>
        </mxCell>
        <mxCell id="kov3exJGOiLsOatTBzYe-64" value="" style="shape=flexArrow;endArrow=classic;html=1;rounded=0;fillColor=#660000;strokeColor=#660000;endWidth=7;endSize=6.38;" parent="1" edge="1">
          <mxGeometry width="50" height="50" relative="1" as="geometry">
            <mxPoint x="219.5" y="440" as="sourcePoint" />
            <mxPoint x="219.5" y="470" as="targetPoint" />
          </mxGeometry>
        </mxCell>
        <mxCell id="kov3exJGOiLsOatTBzYe-65" value="" style="shape=flexArrow;endArrow=classic;html=1;rounded=0;fillColor=#660000;strokeColor=#660000;endWidth=7;endSize=6.38;" parent="1" edge="1">
          <mxGeometry width="50" height="50" relative="1" as="geometry">
            <mxPoint x="317" y="540" as="sourcePoint" />
            <mxPoint x="317" y="570" as="targetPoint" />
          </mxGeometry>
        </mxCell>
        <mxCell id="kov3exJGOiLsOatTBzYe-66" value="" style="shape=flexArrow;endArrow=classic;html=1;rounded=0;fillColor=#660000;strokeColor=#660000;endWidth=7;endSize=6.38;" parent="1" edge="1">
          <mxGeometry width="50" height="50" relative="1" as="geometry">
            <mxPoint x="469.5" y="618.75" as="sourcePoint" />
            <mxPoint x="469.5" y="648.75" as="targetPoint" />
          </mxGeometry>
        </mxCell>
        <mxCell id="kov3exJGOiLsOatTBzYe-67" value="" style="shape=flexArrow;endArrow=classic;html=1;rounded=0;fillColor=#000066;strokeColor=#000066;endWidth=7;endSize=6.38;entryX=0;entryY=0.5;entryDx=0;entryDy=0;" parent="1" edge="1">
          <mxGeometry width="50" height="50" relative="1" as="geometry">
            <mxPoint x="535" y="663.75" as="sourcePoint" />
            <mxPoint x="535" y="663.75" as="targetPoint" />
          </mxGeometry>
        </mxCell>
        <mxCell id="kov3exJGOiLsOatTBzYe-76" value="" style="shape=flexArrow;endArrow=classic;html=1;rounded=0;fillColor=#999999;strokeColor=#999999;endWidth=7;endSize=6.38;" parent="1" edge="1">
          <mxGeometry width="50" height="50" relative="1" as="geometry">
            <mxPoint x="160" y="180" as="sourcePoint" />
            <mxPoint x="930" y="180" as="targetPoint" />
          </mxGeometry>
        </mxCell>
        <mxCell id="kov3exJGOiLsOatTBzYe-77" value="64" style="text;html=1;align=center;verticalAlign=middle;resizable=0;points=[];autosize=1;strokeColor=none;fillColor=none;rotation=0;" parent="1" vertex="1">
          <mxGeometry x="122.5" y="50" width="40" height="30" as="geometry" />
        </mxCell>
        <mxCell id="kov3exJGOiLsOatTBzYe-89" value="128" style="text;html=1;align=center;verticalAlign=middle;resizable=0;points=[];autosize=1;strokeColor=none;fillColor=none;rotation=0;" parent="1" vertex="1">
          <mxGeometry x="160" y="300" width="40" height="30" as="geometry" />
        </mxCell>
        <mxCell id="kov3exJGOiLsOatTBzYe-91" value="&lt;div&gt;&lt;font style=&quot;font-size: 8px;&quot;&gt;$$16 \times 520$$&lt;/font&gt;&lt;br&gt;&lt;/div&gt;" style="text;html=1;align=center;verticalAlign=middle;resizable=0;points=[];autosize=1;strokeColor=none;fillColor=none;rotation=-90;" parent="1" vertex="1">
          <mxGeometry x="95" y="400" width="90" height="30" as="geometry" />
        </mxCell>
        <mxCell id="kov3exJGOiLsOatTBzYe-92" value="&lt;div&gt;&lt;font style=&quot;font-size: 8px;&quot;&gt;$$8 \times 280$$&lt;/font&gt;&lt;br&gt;&lt;/div&gt;" style="text;html=1;align=center;verticalAlign=middle;resizable=0;points=[];autosize=1;strokeColor=none;fillColor=none;rotation=-90;" parent="1" vertex="1">
          <mxGeometry x="175" y="510" width="80" height="30" as="geometry" />
        </mxCell>
        <mxCell id="kov3exJGOiLsOatTBzYe-93" value="256" style="text;html=1;align=center;verticalAlign=middle;resizable=0;points=[];autosize=1;strokeColor=none;fillColor=none;rotation=0;" parent="1" vertex="1">
          <mxGeometry x="250" y="450" width="40" height="30" as="geometry" />
        </mxCell>
        <mxCell id="kov3exJGOiLsOatTBzYe-94" value="&lt;div&gt;&lt;font style=&quot;font-size: 8px;&quot;&gt;$$4 \times 140$$&lt;/font&gt;&lt;br&gt;&lt;/div&gt;" style="text;html=1;align=center;verticalAlign=middle;resizable=0;points=[];autosize=1;strokeColor=none;fillColor=none;rotation=-90;" parent="1" vertex="1">
          <mxGeometry x="267.5" y="590" width="80" height="30" as="geometry" />
        </mxCell>
        <mxCell id="kov3exJGOiLsOatTBzYe-95" value="512" style="text;html=1;align=center;verticalAlign=middle;resizable=0;points=[];autosize=1;strokeColor=none;fillColor=none;rotation=0;" parent="1" vertex="1">
          <mxGeometry x="450" y="550" width="40" height="30" as="geometry" />
        </mxCell>
        <mxCell id="kov3exJGOiLsOatTBzYe-96" value="&lt;div&gt;&lt;font style=&quot;font-size: 8px;&quot;&gt;$$2 \times 70$$&lt;/font&gt;&lt;br&gt;&lt;/div&gt;" style="text;html=1;align=center;verticalAlign=middle;resizable=0;points=[];autosize=1;strokeColor=none;fillColor=none;rotation=-90;" parent="1" vertex="1">
          <mxGeometry x="415" y="650" width="80" height="30" as="geometry" />
        </mxCell>
        <mxCell id="kov3exJGOiLsOatTBzYe-101" value="" style="shape=flexArrow;endArrow=classic;html=1;rounded=0;fillColor=#009900;strokeColor=#009900;endWidth=7;endSize=6.38;" parent="1" edge="1">
          <mxGeometry width="50" height="50" relative="1" as="geometry">
            <mxPoint x="644.5" y="649" as="sourcePoint" />
            <mxPoint x="644.5" y="620" as="targetPoint" />
          </mxGeometry>
        </mxCell>
        <mxCell id="kov3exJGOiLsOatTBzYe-102" value="" style="shape=flexArrow;endArrow=classic;html=1;rounded=0;fillColor=#999999;strokeColor=#999999;endWidth=7;endSize=6.38;entryX=0.889;entryY=0.133;entryDx=0;entryDy=0;entryPerimeter=0;" parent="1" target="kov3exJGOiLsOatTBzYe-297" edge="1">
          <mxGeometry width="50" height="50" relative="1" as="geometry">
            <mxPoint x="240" y="380" as="sourcePoint" />
            <mxPoint x="665" y="380" as="targetPoint" />
          </mxGeometry>
        </mxCell>
        <mxCell id="kov3exJGOiLsOatTBzYe-103" value="" style="shape=flexArrow;endArrow=classic;html=1;rounded=0;fillColor=#999999;strokeColor=#999999;endWidth=7;endSize=6.38;" parent="1" edge="1">
          <mxGeometry width="50" height="50" relative="1" as="geometry">
            <mxPoint x="340" y="505" as="sourcePoint" />
            <mxPoint x="760" y="505" as="targetPoint" />
          </mxGeometry>
        </mxCell>
        <mxCell id="kov3exJGOiLsOatTBzYe-104" value="" style="shape=flexArrow;endArrow=classic;html=1;rounded=0;fillColor=#999999;strokeColor=#999999;endWidth=7;endSize=6.38;entryX=0.598;entryY=0.02;entryDx=0;entryDy=0;entryPerimeter=0;" parent="1" target="kov3exJGOiLsOatTBzYe-231" edge="1">
          <mxGeometry width="50" height="50" relative="1" as="geometry">
            <mxPoint x="500" y="595" as="sourcePoint" />
            <mxPoint x="585" y="601" as="targetPoint" />
          </mxGeometry>
        </mxCell>
        <mxCell id="kov3exJGOiLsOatTBzYe-112" value="128" style="text;html=1;align=center;verticalAlign=middle;resizable=0;points=[];autosize=1;strokeColor=none;fillColor=none;rotation=0;" parent="1" vertex="1">
          <mxGeometry x="200" y="300" width="40" height="30" as="geometry" />
        </mxCell>
        <mxCell id="kov3exJGOiLsOatTBzYe-114" value="" style="rounded=0;whiteSpace=wrap;html=1;fillColor=#dae8fc;strokeColor=#6c8ebf;" parent="1" vertex="1">
          <mxGeometry x="60" y="80" width="3" height="200" as="geometry" />
        </mxCell>
        <mxCell id="kov3exJGOiLsOatTBzYe-116" value="&lt;font style=&quot;font-size: 8px;&quot;&gt;$$32 \times 1120$$&lt;/font&gt;" style="text;html=1;align=center;verticalAlign=middle;resizable=0;points=[];autosize=1;strokeColor=none;fillColor=none;rotation=-90;" parent="1" vertex="1">
          <mxGeometry x="50" y="250" width="90" height="30" as="geometry" />
        </mxCell>
        <mxCell id="kov3exJGOiLsOatTBzYe-117" value="" style="shape=flexArrow;endArrow=classic;html=1;rounded=0;fillColor=#000066;strokeColor=#000066;endWidth=7;endSize=6.38;" parent="1" edge="1">
          <mxGeometry width="50" height="50" relative="1" as="geometry">
            <mxPoint x="105" y="179.5" as="sourcePoint" />
            <mxPoint x="135" y="180" as="targetPoint" />
          </mxGeometry>
        </mxCell>
        <mxCell id="kov3exJGOiLsOatTBzYe-118" value="" style="rounded=0;whiteSpace=wrap;html=1;fillColor=#dae8fc;strokeColor=#6c8ebf;" parent="1" vertex="1">
          <mxGeometry x="100" y="80" width="5" height="200" as="geometry" />
        </mxCell>
        <mxCell id="kov3exJGOiLsOatTBzYe-146" value="" style="rounded=0;whiteSpace=wrap;html=1;fillColor=#FFFFFF;strokeColor=#6c8ebf;" parent="1" vertex="1">
          <mxGeometry x="950" y="80" width="5" height="200" as="geometry" />
        </mxCell>
        <mxCell id="kov3exJGOiLsOatTBzYe-147" value="&lt;font style=&quot;font-size: 8px;&quot;&gt;$$32 \times 1120$$&lt;/font&gt;" style="text;html=1;align=center;verticalAlign=middle;resizable=0;points=[];autosize=1;strokeColor=none;fillColor=none;rotation=-90;" parent="1" vertex="1">
          <mxGeometry x="90" y="250" width="90" height="30" as="geometry" />
        </mxCell>
        <mxCell id="kov3exJGOiLsOatTBzYe-148" value="" style="shape=flexArrow;endArrow=classic;html=1;rounded=0;fillColor=#000066;strokeColor=#000066;endWidth=7;endSize=6.38;entryX=0;entryY=0.5;entryDx=0;entryDy=0;" parent="1" edge="1">
          <mxGeometry width="50" height="50" relative="1" as="geometry">
            <mxPoint x="185" y="379.5" as="sourcePoint" />
            <mxPoint x="215" y="380" as="targetPoint" />
          </mxGeometry>
        </mxCell>
        <mxCell id="kov3exJGOiLsOatTBzYe-149" value="" style="rounded=0;whiteSpace=wrap;html=1;fillColor=#dae8fc;strokeColor=#6c8ebf;" parent="1" vertex="1">
          <mxGeometry x="175" y="330" width="10" height="100" as="geometry" />
        </mxCell>
        <mxCell id="kov3exJGOiLsOatTBzYe-150" value="&lt;div&gt;&lt;font style=&quot;font-size: 8px;&quot;&gt;$$16 \times 520$$&lt;/font&gt;&lt;br&gt;&lt;/div&gt;" style="text;html=1;align=center;verticalAlign=middle;resizable=0;points=[];autosize=1;strokeColor=none;fillColor=none;rotation=-90;" parent="1" vertex="1">
          <mxGeometry x="130" y="400" width="90" height="30" as="geometry" />
        </mxCell>
        <mxCell id="kov3exJGOiLsOatTBzYe-152" value="" style="rounded=0;whiteSpace=wrap;html=1;fillColor=#dae8fc;strokeColor=#6c8ebf;" parent="1" vertex="1">
          <mxGeometry x="830" y="480" width="10" height="50" as="geometry" />
        </mxCell>
        <mxCell id="kov3exJGOiLsOatTBzYe-153" value="&lt;div&gt;&lt;font style=&quot;font-size: 8px;&quot;&gt;$$16 \times 520$$&lt;/font&gt;&lt;br&gt;&lt;/div&gt;" style="text;html=1;align=center;verticalAlign=middle;resizable=0;points=[];autosize=1;strokeColor=none;fillColor=none;rotation=-90;" parent="1" vertex="1">
          <mxGeometry x="170" y="400" width="90" height="30" as="geometry" />
        </mxCell>
        <mxCell id="kov3exJGOiLsOatTBzYe-168" value="" style="shape=flexArrow;endArrow=classic;html=1;rounded=0;fillColor=#000066;strokeColor=#000066;endWidth=7;endSize=6.38;entryX=0;entryY=0.5;entryDx=0;entryDy=0;" parent="1" edge="1">
          <mxGeometry width="50" height="50" relative="1" as="geometry">
            <mxPoint x="277.5" y="504.5" as="sourcePoint" />
            <mxPoint x="307.5" y="505" as="targetPoint" />
          </mxGeometry>
        </mxCell>
        <mxCell id="kov3exJGOiLsOatTBzYe-169" value="" style="rounded=0;whiteSpace=wrap;html=1;fillColor=#dae8fc;strokeColor=#6c8ebf;" parent="1" vertex="1">
          <mxGeometry x="262.5" y="480" width="15" height="50" as="geometry" />
        </mxCell>
        <mxCell id="kov3exJGOiLsOatTBzYe-172" value="256" style="text;html=1;align=center;verticalAlign=middle;resizable=0;points=[];autosize=1;strokeColor=none;fillColor=none;rotation=0;" parent="1" vertex="1">
          <mxGeometry x="297.5" y="450" width="40" height="30" as="geometry" />
        </mxCell>
        <mxCell id="kov3exJGOiLsOatTBzYe-173" value="&lt;div&gt;&lt;font style=&quot;font-size: 8px;&quot;&gt;$$8 \times 280$$&lt;/font&gt;&lt;br&gt;&lt;/div&gt;" style="text;html=1;align=center;verticalAlign=middle;resizable=0;points=[];autosize=1;strokeColor=none;fillColor=none;rotation=-90;" parent="1" vertex="1">
          <mxGeometry x="220" y="510" width="80" height="30" as="geometry" />
        </mxCell>
        <mxCell id="kov3exJGOiLsOatTBzYe-176" value="" style="rounded=0;whiteSpace=wrap;html=1;fillColor=#dae8fc;strokeColor=#6c8ebf;" parent="1" vertex="1">
          <mxGeometry x="140" y="330" width="5" height="100" as="geometry" />
        </mxCell>
        <mxCell id="kov3exJGOiLsOatTBzYe-177" value="" style="rounded=0;whiteSpace=wrap;html=1;fillColor=#dae8fc;strokeColor=#6c8ebf;" parent="1" vertex="1">
          <mxGeometry x="215" y="480" width="10" height="50" as="geometry" />
        </mxCell>
        <mxCell id="kov3exJGOiLsOatTBzYe-189" value="&lt;div&gt;&lt;font style=&quot;font-size: 8px;&quot;&gt;$$8 \times 280$$&lt;/font&gt;&lt;br&gt;&lt;/div&gt;" style="text;html=1;align=center;verticalAlign=middle;resizable=0;points=[];autosize=1;strokeColor=none;fillColor=none;rotation=-90;" parent="1" vertex="1">
          <mxGeometry x="267.5" y="510" width="80" height="30" as="geometry" />
        </mxCell>
        <mxCell id="kov3exJGOiLsOatTBzYe-190" value="" style="rounded=0;whiteSpace=wrap;html=1;fillColor=#dae8fc;strokeColor=#6c8ebf;" parent="1" vertex="1">
          <mxGeometry x="310" y="480" width="15" height="50" as="geometry" />
        </mxCell>
        <mxCell id="kov3exJGOiLsOatTBzYe-191" value="64" style="text;html=1;align=center;verticalAlign=middle;resizable=0;points=[];autosize=1;strokeColor=none;fillColor=none;rotation=0;" parent="1" vertex="1">
          <mxGeometry x="82.5" y="50" width="40" height="30" as="geometry" />
        </mxCell>
        <mxCell id="kov3exJGOiLsOatTBzYe-192" value="" style="rounded=0;whiteSpace=wrap;html=1;fillColor=#dae8fc;strokeColor=#6c8ebf;" parent="1" vertex="1">
          <mxGeometry x="310" y="580" width="15" height="30" as="geometry" />
        </mxCell>
        <mxCell id="kov3exJGOiLsOatTBzYe-45" value="" style="rounded=0;whiteSpace=wrap;html=1;fillColor=#dae8fc;strokeColor=#6c8ebf;" parent="1" vertex="1">
          <mxGeometry x="375" y="580" width="30" height="30" as="geometry" />
        </mxCell>
        <mxCell id="kov3exJGOiLsOatTBzYe-195" value="" style="shape=flexArrow;endArrow=classic;html=1;rounded=0;fillColor=#000066;strokeColor=#000066;endWidth=7;endSize=6.38;entryX=0.67;entryY=-0.053;entryDx=0;entryDy=0;entryPerimeter=0;" parent="1" edge="1" target="kov3exJGOiLsOatTBzYe-260">
          <mxGeometry width="50" height="50" relative="1" as="geometry">
            <mxPoint x="325" y="594.5" as="sourcePoint" />
            <mxPoint x="355" y="595" as="targetPoint" />
          </mxGeometry>
        </mxCell>
        <mxCell id="kov3exJGOiLsOatTBzYe-197" value="" style="shape=flexArrow;endArrow=classic;html=1;rounded=0;fillColor=#000066;strokeColor=#000066;endWidth=7;endSize=6.38;entryX=0;entryY=0.5;entryDx=0;entryDy=0;" parent="1" edge="1">
          <mxGeometry width="50" height="50" relative="1" as="geometry">
            <mxPoint x="405" y="594.5" as="sourcePoint" />
            <mxPoint x="435" y="595" as="targetPoint" />
          </mxGeometry>
        </mxCell>
        <mxCell id="kov3exJGOiLsOatTBzYe-198" value="512" style="text;html=1;align=center;verticalAlign=middle;resizable=0;points=[];autosize=1;strokeColor=none;fillColor=none;rotation=0;" parent="1" vertex="1">
          <mxGeometry x="370" y="550" width="40" height="30" as="geometry" />
        </mxCell>
        <mxCell id="kov3exJGOiLsOatTBzYe-200" value="" style="rounded=0;whiteSpace=wrap;html=1;fillColor=#dae8fc;strokeColor=#6c8ebf;" parent="1" vertex="1">
          <mxGeometry x="455" y="657.5" width="30" height="12.5" as="geometry" />
        </mxCell>
        <mxCell id="kov3exJGOiLsOatTBzYe-215" value="" style="shape=flexArrow;endArrow=classic;html=1;rounded=0;fillColor=#000066;strokeColor=#000066;endWidth=7;endSize=6.38;entryX=0;entryY=0.5;entryDx=0;entryDy=0;" parent="1" edge="1">
          <mxGeometry width="50" height="50" relative="1" as="geometry">
            <mxPoint x="490" y="663.25" as="sourcePoint" />
            <mxPoint x="520" y="663.75" as="targetPoint" />
          </mxGeometry>
        </mxCell>
        <mxCell id="kov3exJGOiLsOatTBzYe-219" value="" style="shape=flexArrow;endArrow=classic;html=1;rounded=0;fillColor=#000066;strokeColor=#000066;endWidth=7;endSize=6.38;entryX=0;entryY=0.5;entryDx=0;entryDy=0;" parent="1" edge="1">
          <mxGeometry width="50" height="50" relative="1" as="geometry">
            <mxPoint x="625" y="661.88" as="sourcePoint" />
            <mxPoint x="625" y="661.88" as="targetPoint" />
          </mxGeometry>
        </mxCell>
        <mxCell id="kov3exJGOiLsOatTBzYe-220" value="" style="rounded=0;whiteSpace=wrap;html=1;fillColor=#dae8fc;strokeColor=#6c8ebf;" parent="1" vertex="1">
          <mxGeometry x="545" y="657.5" width="30" height="12.5" as="geometry" />
        </mxCell>
        <mxCell id="kov3exJGOiLsOatTBzYe-221" value="" style="shape=flexArrow;endArrow=classic;html=1;rounded=0;fillColor=#000066;strokeColor=#000066;endWidth=7;endSize=6.38;entryX=0;entryY=0.5;entryDx=0;entryDy=0;" parent="1" edge="1">
          <mxGeometry width="50" height="50" relative="1" as="geometry">
            <mxPoint x="580" y="664.5" as="sourcePoint" />
            <mxPoint x="610" y="665" as="targetPoint" />
          </mxGeometry>
        </mxCell>
        <mxCell id="kov3exJGOiLsOatTBzYe-226" value="" style="rounded=0;whiteSpace=wrap;html=1;fillColor=#dae8fc;strokeColor=#6c8ebf;" parent="1" vertex="1">
          <mxGeometry x="630" y="658.75" width="30" height="12.5" as="geometry" />
        </mxCell>
        <mxCell id="kov3exJGOiLsOatTBzYe-228" value="1024" style="text;html=1;align=center;verticalAlign=middle;resizable=0;points=[];autosize=1;strokeColor=none;fillColor=none;rotation=0;" parent="1" vertex="1">
          <mxGeometry x="535" y="630" width="50" height="30" as="geometry" />
        </mxCell>
        <mxCell id="kov3exJGOiLsOatTBzYe-231" value="&lt;div&gt;&lt;font style=&quot;font-size: 8px;&quot;&gt;$$4 \times 140$$&lt;/font&gt;&lt;br&gt;&lt;/div&gt;" style="text;html=1;align=center;verticalAlign=middle;resizable=0;points=[];autosize=1;strokeColor=none;fillColor=none;rotation=-90;" parent="1" vertex="1">
          <mxGeometry x="560" y="590" width="80" height="30" as="geometry" />
        </mxCell>
        <mxCell id="kov3exJGOiLsOatTBzYe-233" value="" style="rounded=0;whiteSpace=wrap;html=1;fillColor=#FFFFFF;strokeColor=#6c8ebf;" parent="1" vertex="1">
          <mxGeometry x="600" y="580" width="30" height="30" as="geometry" />
        </mxCell>
        <mxCell id="kov3exJGOiLsOatTBzYe-243" value="1024" style="text;html=1;align=center;verticalAlign=middle;resizable=0;points=[];autosize=1;strokeColor=none;fillColor=none;rotation=0;" parent="1" vertex="1">
          <mxGeometry x="605" y="550" width="50" height="30" as="geometry" />
        </mxCell>
        <mxCell id="kov3exJGOiLsOatTBzYe-240" value="" style="rounded=0;whiteSpace=wrap;html=1;fillColor=#dae8fc;strokeColor=#6c8ebf;" parent="1" vertex="1">
          <mxGeometry x="710" y="580" width="15" height="30" as="geometry" />
        </mxCell>
        <mxCell id="kov3exJGOiLsOatTBzYe-249" value="" style="rounded=0;whiteSpace=wrap;html=1;fillColor=#dae8fc;strokeColor=#6c8ebf;" parent="1" vertex="1">
          <mxGeometry x="775" y="580" width="15" height="30" as="geometry" />
        </mxCell>
        <mxCell id="kov3exJGOiLsOatTBzYe-250" value="" style="shape=flexArrow;endArrow=classic;html=1;rounded=0;fillColor=#009900;strokeColor=#009900;endWidth=7;endSize=6.38;" parent="1" edge="1">
          <mxGeometry width="50" height="50" relative="1" as="geometry">
            <mxPoint x="782" y="569" as="sourcePoint" />
            <mxPoint x="782" y="540" as="targetPoint" />
          </mxGeometry>
        </mxCell>
        <mxCell id="kov3exJGOiLsOatTBzYe-252" value="" style="rounded=0;whiteSpace=wrap;html=1;fillColor=#FFFFFF;strokeColor=#6c8ebf;" parent="1" vertex="1">
          <mxGeometry x="765" y="480" width="15" height="50" as="geometry" />
        </mxCell>
        <mxCell id="kov3exJGOiLsOatTBzYe-253" value="" style="rounded=0;whiteSpace=wrap;html=1;fillColor=#dae8fc;strokeColor=#6c8ebf;" parent="1" vertex="1">
          <mxGeometry x="780" y="480" width="15" height="50" as="geometry" />
        </mxCell>
        <mxCell id="kov3exJGOiLsOatTBzYe-254" value="512" style="text;html=1;align=center;verticalAlign=middle;resizable=0;points=[];autosize=1;strokeColor=none;fillColor=none;rotation=0;" parent="1" vertex="1">
          <mxGeometry x="757.5" y="450" width="40" height="30" as="geometry" />
        </mxCell>
        <mxCell id="kov3exJGOiLsOatTBzYe-256" value="&lt;div&gt;&lt;font style=&quot;font-size: 8px;&quot;&gt;$$8 \times 280$$&lt;/font&gt;&lt;br&gt;&lt;/div&gt;" style="text;html=1;align=center;verticalAlign=middle;resizable=0;points=[];autosize=1;strokeColor=none;fillColor=none;rotation=-90;strokeWidth=1;" parent="1" vertex="1">
          <mxGeometry x="725" y="510" width="80" height="30" as="geometry" />
        </mxCell>
        <mxCell id="kov3exJGOiLsOatTBzYe-257" value="&lt;div&gt;&lt;font style=&quot;font-size: 8px;&quot;&gt;$$2 \times 70$$&lt;/font&gt;&lt;br&gt;&lt;/div&gt;" style="text;html=1;align=center;verticalAlign=middle;resizable=0;points=[];autosize=1;strokeColor=none;fillColor=none;rotation=-90;" parent="1" vertex="1">
          <mxGeometry x="505" y="650" width="80" height="30" as="geometry" />
        </mxCell>
        <mxCell id="kov3exJGOiLsOatTBzYe-258" value="&lt;div&gt;&lt;font style=&quot;font-size: 8px;&quot;&gt;$$2 \times 70$$&lt;/font&gt;&lt;br&gt;&lt;/div&gt;" style="text;html=1;align=center;verticalAlign=middle;resizable=0;points=[];autosize=1;strokeColor=none;fillColor=none;rotation=-90;" parent="1" vertex="1">
          <mxGeometry x="590" y="648.75" width="80" height="30" as="geometry" />
        </mxCell>
        <mxCell id="kov3exJGOiLsOatTBzYe-260" value="&lt;div&gt;&lt;font style=&quot;font-size: 8px;&quot;&gt;$$4 \times 140$$&lt;/font&gt;&lt;br&gt;&lt;/div&gt;" style="text;html=1;align=center;verticalAlign=middle;resizable=0;points=[];autosize=1;strokeColor=none;fillColor=none;rotation=-90;" parent="1" vertex="1">
          <mxGeometry x="335" y="590" width="80" height="30" as="geometry" />
        </mxCell>
        <mxCell id="kov3exJGOiLsOatTBzYe-265" value="&lt;div&gt;&lt;font style=&quot;font-size: 8px;&quot;&gt;$$4 \times 140$$&lt;/font&gt;&lt;br&gt;&lt;/div&gt;" style="text;html=1;align=center;verticalAlign=middle;resizable=0;points=[];autosize=1;strokeColor=none;fillColor=none;rotation=-90;" parent="1" vertex="1">
          <mxGeometry x="415" y="590" width="80" height="30" as="geometry" />
        </mxCell>
        <mxCell id="kov3exJGOiLsOatTBzYe-196" value="" style="rounded=0;whiteSpace=wrap;html=1;fillColor=#dae8fc;strokeColor=#6c8ebf;" parent="1" vertex="1">
          <mxGeometry x="455" y="580" width="30" height="30" as="geometry" />
        </mxCell>
        <mxCell id="kov3exJGOiLsOatTBzYe-275" value="&lt;div&gt;&lt;font style=&quot;font-size: 8px;&quot;&gt;$$4 \times 140$$&lt;/font&gt;&lt;br&gt;&lt;/div&gt;" style="text;html=1;align=center;verticalAlign=middle;resizable=0;points=[];autosize=1;strokeColor=none;fillColor=none;rotation=-90;" parent="1" vertex="1">
          <mxGeometry x="670" y="590" width="80" height="30" as="geometry" />
        </mxCell>
        <mxCell id="kov3exJGOiLsOatTBzYe-276" value="" style="rounded=0;whiteSpace=wrap;html=1;fillColor=#dae8fc;strokeColor=#6c8ebf;" parent="1" vertex="1">
          <mxGeometry x="215" y="330" width="10" height="100" as="geometry" />
        </mxCell>
        <mxCell id="kov3exJGOiLsOatTBzYe-277" value="&lt;div&gt;&lt;font style=&quot;font-size: 8px;&quot;&gt;$$8 \times 280$$&lt;/font&gt;&lt;br&gt;&lt;/div&gt;" style="text;html=1;align=center;verticalAlign=middle;resizable=0;points=[];autosize=1;strokeColor=none;fillColor=none;rotation=-90;" parent="1" vertex="1">
          <mxGeometry x="787.5" y="510" width="80" height="30" as="geometry" />
        </mxCell>
        <mxCell id="kov3exJGOiLsOatTBzYe-278" value="256" style="text;html=1;align=center;verticalAlign=middle;resizable=0;points=[];autosize=1;strokeColor=none;fillColor=none;rotation=0;" parent="1" vertex="1">
          <mxGeometry x="815" y="450" width="40" height="30" as="geometry" />
        </mxCell>
        <mxCell id="kov3exJGOiLsOatTBzYe-279" value="" style="shape=flexArrow;endArrow=classic;html=1;rounded=0;fillColor=#000066;strokeColor=#000066;endWidth=7;endSize=6.38;entryX=0;entryY=0.5;entryDx=0;entryDy=0;" parent="1" edge="1">
          <mxGeometry width="50" height="50" relative="1" as="geometry">
            <mxPoint x="795" y="504.5" as="sourcePoint" />
            <mxPoint x="825.5" y="505" as="targetPoint" />
          </mxGeometry>
        </mxCell>
        <mxCell id="kov3exJGOiLsOatTBzYe-280" value="" style="rounded=0;whiteSpace=wrap;html=1;fillColor=#dae8fc;strokeColor=#6c8ebf;" parent="1" vertex="1">
          <mxGeometry x="870" y="480" width="10" height="50" as="geometry" />
        </mxCell>
        <mxCell id="kov3exJGOiLsOatTBzYe-281" value="&lt;div&gt;&lt;font style=&quot;font-size: 8px;&quot;&gt;$$8 \times 280$$&lt;/font&gt;&lt;br&gt;&lt;/div&gt;" style="text;html=1;align=center;verticalAlign=middle;resizable=0;points=[];autosize=1;strokeColor=none;fillColor=none;rotation=-90;" parent="1" vertex="1">
          <mxGeometry x="830" y="510" width="80" height="30" as="geometry" />
        </mxCell>
        <mxCell id="kov3exJGOiLsOatTBzYe-282" value="" style="shape=flexArrow;endArrow=classic;html=1;rounded=0;fillColor=#000066;strokeColor=#000066;endWidth=7;endSize=6.38;entryX=0;entryY=0.5;entryDx=0;entryDy=0;" parent="1" edge="1">
          <mxGeometry width="50" height="50" relative="1" as="geometry">
            <mxPoint x="840" y="504.5" as="sourcePoint" />
            <mxPoint x="870.5" y="505" as="targetPoint" />
          </mxGeometry>
        </mxCell>
        <mxCell id="kov3exJGOiLsOatTBzYe-284" value="" style="shape=flexArrow;endArrow=classic;html=1;rounded=0;fillColor=#000066;strokeColor=#000066;endWidth=7;endSize=6.38;entryX=0;entryY=0.5;entryDx=0;entryDy=0;" parent="1" target="kov3exJGOiLsOatTBzYe-230" edge="1">
          <mxGeometry width="50" height="50" relative="1" as="geometry">
            <mxPoint x="655" y="594.5" as="sourcePoint" />
            <mxPoint x="685.5" y="595" as="targetPoint" />
          </mxGeometry>
        </mxCell>
        <mxCell id="kov3exJGOiLsOatTBzYe-230" value="" style="rounded=0;whiteSpace=wrap;html=1;fillColor=#dae8fc;strokeColor=#6c8ebf;" parent="1" vertex="1">
          <mxGeometry x="630" y="580" width="30" height="30" as="geometry" />
        </mxCell>
        <mxCell id="kov3exJGOiLsOatTBzYe-287" value="" style="shape=flexArrow;endArrow=classic;html=1;rounded=0;fillColor=#000066;strokeColor=#000066;endWidth=7;endSize=6.38;entryX=0;entryY=0.5;entryDx=0;entryDy=0;" parent="1" edge="1">
          <mxGeometry width="50" height="50" relative="1" as="geometry">
            <mxPoint x="660" y="594.5" as="sourcePoint" />
            <mxPoint x="690.5" y="595" as="targetPoint" />
          </mxGeometry>
        </mxCell>
        <mxCell id="kov3exJGOiLsOatTBzYe-289" value="&lt;div&gt;&lt;font style=&quot;font-size: 8px;&quot;&gt;$$4 \times 140$$&lt;/font&gt;&lt;br&gt;&lt;/div&gt;" style="text;html=1;align=center;verticalAlign=middle;resizable=0;points=[];autosize=1;strokeColor=none;fillColor=none;rotation=-90;" parent="1" vertex="1">
          <mxGeometry x="737.5" y="590" width="80" height="30" as="geometry" />
        </mxCell>
        <mxCell id="kov3exJGOiLsOatTBzYe-290" value="" style="shape=flexArrow;endArrow=classic;html=1;rounded=0;fillColor=#000066;strokeColor=#000066;endWidth=7;endSize=6.38;entryX=0;entryY=0.5;entryDx=0;entryDy=0;" parent="1" edge="1">
          <mxGeometry width="50" height="50" relative="1" as="geometry">
            <mxPoint x="725" y="594.5" as="sourcePoint" />
            <mxPoint x="755.5" y="595" as="targetPoint" />
          </mxGeometry>
        </mxCell>
        <mxCell id="kov3exJGOiLsOatTBzYe-291" value="512" style="text;html=1;align=center;verticalAlign=middle;resizable=0;points=[];autosize=1;strokeColor=none;fillColor=none;rotation=0;" parent="1" vertex="1">
          <mxGeometry x="697.5" y="550" width="40" height="30" as="geometry" />
        </mxCell>
        <mxCell id="kov3exJGOiLsOatTBzYe-293" value="" style="shape=flexArrow;endArrow=classic;html=1;rounded=0;fillColor=#009900;strokeColor=#009900;endWidth=7;endSize=6.38;" parent="1" edge="1">
          <mxGeometry width="50" height="50" relative="1" as="geometry">
            <mxPoint x="874.5" y="469" as="sourcePoint" />
            <mxPoint x="874.5" y="440" as="targetPoint" />
          </mxGeometry>
        </mxCell>
        <mxCell id="kov3exJGOiLsOatTBzYe-294" value="" style="rounded=0;whiteSpace=wrap;html=1;fillColor=#FFFFFF;strokeColor=#6c8ebf;" parent="1" vertex="1">
          <mxGeometry x="865" y="330" width="10" height="100" as="geometry" />
        </mxCell>
        <mxCell id="kov3exJGOiLsOatTBzYe-295" value="" style="rounded=0;whiteSpace=wrap;html=1;fillColor=#dae8fc;strokeColor=#6c8ebf;" parent="1" vertex="1">
          <mxGeometry x="875" y="330" width="10" height="100" as="geometry" />
        </mxCell>
        <mxCell id="kov3exJGOiLsOatTBzYe-296" value="256" style="text;html=1;align=center;verticalAlign=middle;resizable=0;points=[];autosize=1;strokeColor=none;fillColor=none;rotation=0;" parent="1" vertex="1">
          <mxGeometry x="855" y="300" width="40" height="30" as="geometry" />
        </mxCell>
        <mxCell id="kov3exJGOiLsOatTBzYe-297" value="&lt;div&gt;&lt;font style=&quot;font-size: 8px;&quot;&gt;$$16 \times 560$$&lt;/font&gt;&lt;br&gt;&lt;/div&gt;" style="text;html=1;align=center;verticalAlign=middle;resizable=0;points=[];autosize=1;strokeColor=none;fillColor=none;rotation=-90;" parent="1" vertex="1">
          <mxGeometry x="810" y="400" width="90" height="30" as="geometry" />
        </mxCell>
        <mxCell id="kov3exJGOiLsOatTBzYe-298" value="" style="shape=flexArrow;endArrow=classic;html=1;rounded=0;fillColor=#000066;strokeColor=#000066;endWidth=7;endSize=6.38;entryX=0;entryY=0.5;entryDx=0;entryDy=0;" parent="1" edge="1">
          <mxGeometry width="50" height="50" relative="1" as="geometry">
            <mxPoint x="885" y="379.5" as="sourcePoint" />
            <mxPoint x="915.5" y="380" as="targetPoint" />
          </mxGeometry>
        </mxCell>
        <mxCell id="kov3exJGOiLsOatTBzYe-302" value="&lt;div&gt;&lt;font style=&quot;font-size: 8px;&quot;&gt;$$8 \times 560$$&lt;/font&gt;&lt;br&gt;&lt;/div&gt;" style="text;html=1;align=center;verticalAlign=middle;resizable=0;points=[];autosize=1;strokeColor=none;fillColor=none;rotation=-90;" parent="1" vertex="1">
          <mxGeometry x="870" y="400" width="80" height="30" as="geometry" />
        </mxCell>
        <mxCell id="kov3exJGOiLsOatTBzYe-309" value="" style="rounded=0;whiteSpace=wrap;html=1;fillColor=#dae8fc;strokeColor=#6c8ebf;" parent="1" vertex="1">
          <mxGeometry x="920" y="330" width="5" height="100" as="geometry" />
        </mxCell>
        <mxCell id="kov3exJGOiLsOatTBzYe-311" value="128" style="text;html=1;align=center;verticalAlign=middle;resizable=0;points=[];autosize=1;strokeColor=none;fillColor=none;rotation=0;" parent="1" vertex="1">
          <mxGeometry x="902.5" y="300" width="40" height="30" as="geometry" />
        </mxCell>
        <mxCell id="kov3exJGOiLsOatTBzYe-312" value="" style="shape=flexArrow;endArrow=classic;html=1;rounded=0;fillColor=#000066;strokeColor=#000066;endWidth=7;endSize=6.38;entryX=0;entryY=0.5;entryDx=0;entryDy=0;" parent="1" edge="1">
          <mxGeometry width="50" height="50" relative="1" as="geometry">
            <mxPoint x="925" y="379.5" as="sourcePoint" />
            <mxPoint x="955.5" y="380" as="targetPoint" />
          </mxGeometry>
        </mxCell>
        <mxCell id="kov3exJGOiLsOatTBzYe-321" value="&lt;div style=&quot;font-size: 8px;&quot;&gt;$$8 \times 560$$&lt;br&gt;&lt;/div&gt;" style="text;html=1;align=center;verticalAlign=middle;resizable=0;points=[];autosize=1;strokeColor=none;fillColor=none;rotation=-90;" parent="1" vertex="1">
          <mxGeometry x="905" y="405" width="80" height="20" as="geometry" />
        </mxCell>
        <mxCell id="kov3exJGOiLsOatTBzYe-322" value="" style="rounded=0;whiteSpace=wrap;html=1;fillColor=#dae8fc;strokeColor=#6c8ebf;" parent="1" vertex="1">
          <mxGeometry x="955" y="330" width="5" height="100" as="geometry" />
        </mxCell>
        <mxCell id="kov3exJGOiLsOatTBzYe-326" value="" style="rounded=0;whiteSpace=wrap;html=1;fillColor=#dae8fc;strokeColor=#6c8ebf;" parent="1" vertex="1">
          <mxGeometry x="955" y="80" width="5" height="200" as="geometry" />
        </mxCell>
        <mxCell id="kov3exJGOiLsOatTBzYe-327" value="" style="shape=flexArrow;endArrow=classic;html=1;rounded=0;fillColor=#009900;strokeColor=#009900;endWidth=7;endSize=6.38;" parent="1" edge="1">
          <mxGeometry width="50" height="50" relative="1" as="geometry">
            <mxPoint x="957" y="319" as="sourcePoint" />
            <mxPoint x="957" y="290" as="targetPoint" />
          </mxGeometry>
        </mxCell>
        <mxCell id="kov3exJGOiLsOatTBzYe-329" value="128" style="text;html=1;align=center;verticalAlign=middle;resizable=0;points=[];autosize=1;strokeColor=none;fillColor=none;rotation=0;" parent="1" vertex="1">
          <mxGeometry x="935" y="50" width="40" height="30" as="geometry" />
        </mxCell>
        <mxCell id="kov3exJGOiLsOatTBzYe-330" value="" style="rounded=0;whiteSpace=wrap;html=1;fillColor=#dae8fc;strokeColor=#6c8ebf;" parent="1" vertex="1">
          <mxGeometry x="140" y="80" width="5" height="200" as="geometry" />
        </mxCell>
        <mxCell id="kov3exJGOiLsOatTBzYe-331" value="" style="shape=flexArrow;endArrow=classic;html=1;rounded=0;fillColor=#000066;strokeColor=#000066;endWidth=7;endSize=6.38;entryX=0;entryY=0.5;entryDx=0;entryDy=0;" parent="1" edge="1">
          <mxGeometry width="50" height="50" relative="1" as="geometry">
            <mxPoint x="960" y="179.5" as="sourcePoint" />
            <mxPoint x="990.5" y="180" as="targetPoint" />
          </mxGeometry>
        </mxCell>
        <mxCell id="kov3exJGOiLsOatTBzYe-334" value="" style="shape=flexArrow;endArrow=classic;html=1;rounded=0;fillColor=#000066;strokeColor=#000066;endWidth=7;endSize=6.38;entryX=0;entryY=0.5;entryDx=0;entryDy=0;" parent="1" edge="1">
          <mxGeometry width="50" height="50" relative="1" as="geometry">
            <mxPoint x="1000" y="179.5" as="sourcePoint" />
            <mxPoint x="1030.5" y="180" as="targetPoint" />
          </mxGeometry>
        </mxCell>
        <mxCell id="kov3exJGOiLsOatTBzYe-335" value="&lt;font style=&quot;font-size: 8px;&quot;&gt;$$32&amp;nbsp;\times 1120$$&lt;/font&gt;" style="text;html=1;align=center;verticalAlign=middle;resizable=0;points=[];autosize=1;strokeColor=none;fillColor=none;rotation=-90;" parent="1" vertex="1">
          <mxGeometry x="900" y="240" width="90" height="30" as="geometry" />
        </mxCell>
        <mxCell id="kov3exJGOiLsOatTBzYe-339" value="" style="rounded=0;whiteSpace=wrap;html=1;fillColor=#dae8fc;strokeColor=#6c8ebf;" parent="1" vertex="1">
          <mxGeometry x="995" y="80" width="5" height="200" as="geometry" />
        </mxCell>
        <mxCell id="kov3exJGOiLsOatTBzYe-340" value="&lt;font style=&quot;font-size: 8px;&quot;&gt;$$32&amp;nbsp;\times 1120$$&lt;/font&gt;" style="text;html=1;align=center;verticalAlign=middle;resizable=0;points=[];autosize=1;strokeColor=none;fillColor=none;rotation=-90;" parent="1" vertex="1">
          <mxGeometry x="940" y="240" width="90" height="30" as="geometry" />
        </mxCell>
        <mxCell id="kov3exJGOiLsOatTBzYe-344" value="&lt;font style=&quot;font-size: 8px;&quot;&gt;$$32&amp;nbsp;\times 1120$$&lt;/font&gt;" style="text;html=1;align=center;verticalAlign=middle;resizable=0;points=[];autosize=1;strokeColor=none;fillColor=none;rotation=-90;" parent="1" vertex="1">
          <mxGeometry x="980" y="240" width="90" height="30" as="geometry" />
        </mxCell>
        <mxCell id="kov3exJGOiLsOatTBzYe-345" value="" style="rounded=0;whiteSpace=wrap;html=1;fillColor=#dae8fc;strokeColor=#6c8ebf;" parent="1" vertex="1">
          <mxGeometry x="1035" y="80" width="5" height="200" as="geometry" />
        </mxCell>
        <mxCell id="kov3exJGOiLsOatTBzYe-348" value="" style="shape=flexArrow;endArrow=classic;html=1;rounded=0;fillColor=#000066;strokeColor=#000066;endWidth=7;endSize=6.38;entryX=0;entryY=0.5;entryDx=0;entryDy=0;" parent="1" edge="1">
          <mxGeometry width="50" height="50" relative="1" as="geometry">
            <mxPoint x="795" y="504.5" as="sourcePoint" />
            <mxPoint x="825.5" y="505" as="targetPoint" />
          </mxGeometry>
        </mxCell>
        <mxCell id="kov3exJGOiLsOatTBzYe-349" value="" style="shape=flexArrow;endArrow=classic;html=1;rounded=0;fillColor=#009999;strokeColor=#009999;endWidth=7;endSize=6.38;entryX=0;entryY=0.5;entryDx=0;entryDy=0;" parent="1" edge="1">
          <mxGeometry width="50" height="50" relative="1" as="geometry">
            <mxPoint x="1040" y="179.5" as="sourcePoint" />
            <mxPoint x="1070.5" y="180" as="targetPoint" />
          </mxGeometry>
        </mxCell>
        <mxCell id="kov3exJGOiLsOatTBzYe-350" value="" style="rounded=0;whiteSpace=wrap;html=1;fillColor=#dae8fc;strokeColor=#6c8ebf;" parent="1" vertex="1">
          <mxGeometry x="1070" y="80" width="2.5" height="200" as="geometry" />
        </mxCell>
        <mxCell id="kov3exJGOiLsOatTBzYe-351" value="64" style="text;html=1;align=center;verticalAlign=middle;resizable=0;points=[];autosize=1;strokeColor=none;fillColor=none;rotation=0;" parent="1" vertex="1">
          <mxGeometry x="977.5" y="50" width="40" height="30" as="geometry" />
        </mxCell>
        <mxCell id="kov3exJGOiLsOatTBzYe-352" value="64" style="text;html=1;align=center;verticalAlign=middle;resizable=0;points=[];autosize=1;strokeColor=none;fillColor=none;rotation=0;" parent="1" vertex="1">
          <mxGeometry x="1017.5" y="50" width="40" height="30" as="geometry" />
        </mxCell>
        <mxCell id="kov3exJGOiLsOatTBzYe-353" value="2" style="text;html=1;align=center;verticalAlign=middle;resizable=0;points=[];autosize=1;strokeColor=none;fillColor=none;rotation=0;" parent="1" vertex="1">
          <mxGeometry x="1058.5" y="50" width="30" height="30" as="geometry" />
        </mxCell>
        <mxCell id="kov3exJGOiLsOatTBzYe-354" value="" style="shape=flexArrow;endArrow=classic;html=1;rounded=0;fillColor=#000066;strokeColor=#000066;endWidth=7;endSize=6.38;entryX=0;entryY=0.5;entryDx=0;entryDy=0;" parent="1" edge="1">
          <mxGeometry width="50" height="50" relative="1" as="geometry">
            <mxPoint x="915" y="514.5" as="sourcePoint" />
            <mxPoint x="945.5" y="515" as="targetPoint" />
          </mxGeometry>
        </mxCell>
        <mxCell id="kov3exJGOiLsOatTBzYe-355" value="" style="shape=flexArrow;endArrow=classic;html=1;rounded=0;fillColor=#999999;strokeColor=#999999;endWidth=7;endSize=6.38;entryX=0;entryY=0.5;entryDx=0;entryDy=0;" parent="1" edge="1">
          <mxGeometry width="50" height="50" relative="1" as="geometry">
            <mxPoint x="915" y="544.5" as="sourcePoint" />
            <mxPoint x="945.5" y="545" as="targetPoint" />
          </mxGeometry>
        </mxCell>
        <mxCell id="kov3exJGOiLsOatTBzYe-357" value="" style="shape=flexArrow;endArrow=classic;html=1;rounded=0;fillColor=#660000;strokeColor=#660000;endWidth=7;endSize=6.38;" parent="1" edge="1">
          <mxGeometry width="50" height="50" relative="1" as="geometry">
            <mxPoint x="932.5" y="570" as="sourcePoint" />
            <mxPoint x="932.5" y="600" as="targetPoint" />
          </mxGeometry>
        </mxCell>
        <mxCell id="kov3exJGOiLsOatTBzYe-358" value="" style="shape=flexArrow;endArrow=classic;html=1;rounded=0;fillColor=#009900;strokeColor=#009900;endWidth=7;endSize=6.38;" parent="1" edge="1">
          <mxGeometry width="50" height="50" relative="1" as="geometry">
            <mxPoint x="932.5" y="637.5" as="sourcePoint" />
            <mxPoint x="932.5" y="608.5" as="targetPoint" />
          </mxGeometry>
        </mxCell>
        <mxCell id="kov3exJGOiLsOatTBzYe-359" value="" style="shape=flexArrow;endArrow=classic;html=1;rounded=0;fillColor=#009999;strokeColor=#009999;endWidth=7;endSize=6.38;entryX=0;entryY=0.5;entryDx=0;entryDy=0;" parent="1" edge="1">
          <mxGeometry width="50" height="50" relative="1" as="geometry">
            <mxPoint x="917" y="654.5" as="sourcePoint" />
            <mxPoint x="947.5" y="655" as="targetPoint" />
          </mxGeometry>
        </mxCell>
        <mxCell id="kov3exJGOiLsOatTBzYe-362" value="&lt;font style=&quot;font-size: 8px;&quot;&gt;$$32&amp;nbsp;\times 1120$$&lt;/font&gt;" style="text;html=1;align=center;verticalAlign=middle;resizable=0;points=[];autosize=1;strokeColor=none;fillColor=none;rotation=-90;" parent="1" vertex="1">
          <mxGeometry x="1017.5" y="240" width="90" height="30" as="geometry" />
        </mxCell>
        <mxCell id="kov3exJGOiLsOatTBzYe-363" value="&lt;font color=&quot;#0000cc&quot; style=&quot;font-size: 14px;&quot;&gt;conv 3x3, ReLU&lt;/font&gt;" style="text;html=1;align=center;verticalAlign=middle;resizable=0;points=[];autosize=1;strokeColor=none;fillColor=none;" parent="1" vertex="1">
          <mxGeometry x="947.5" y="500" width="120" height="30" as="geometry" />
        </mxCell>
        <mxCell id="kov3exJGOiLsOatTBzYe-364" value="&lt;font style=&quot;font-size: 14px;&quot; color=&quot;#666666&quot;&gt;copy and concat&lt;br&gt;&lt;/font&gt;" style="text;html=1;align=center;verticalAlign=middle;resizable=0;points=[];autosize=1;strokeColor=none;fillColor=none;" parent="1" vertex="1">
          <mxGeometry x="942.5" y="530" width="130" height="30" as="geometry" />
        </mxCell>
        <mxCell id="kov3exJGOiLsOatTBzYe-365" value="&lt;font color=&quot;#990000&quot; style=&quot;font-size: 14px;&quot;&gt;max pool 2x2&lt;/font&gt;&lt;font color=&quot;#990000&quot; style=&quot;font-size: 14px;&quot;&gt;&lt;br&gt;&lt;/font&gt;" style="text;html=1;align=center;verticalAlign=middle;resizable=0;points=[];autosize=1;strokeColor=none;fillColor=none;" parent="1" vertex="1">
          <mxGeometry x="942.5" y="570" width="110" height="30" as="geometry" />
        </mxCell>
        <mxCell id="kov3exJGOiLsOatTBzYe-366" value="&lt;font color=&quot;#009900&quot; style=&quot;font-size: 14px;&quot;&gt;bilinear upsampling&lt;/font&gt;&lt;font color=&quot;#009900&quot; style=&quot;font-size: 14px;&quot;&gt;&lt;br&gt;&lt;/font&gt;" style="text;html=1;align=center;verticalAlign=middle;resizable=0;points=[];autosize=1;strokeColor=none;fillColor=none;" parent="1" vertex="1">
          <mxGeometry x="942.5" y="610" width="150" height="30" as="geometry" />
        </mxCell>
        <mxCell id="kov3exJGOiLsOatTBzYe-367" value="&lt;font color=&quot;#009999&quot; style=&quot;font-size: 14px;&quot;&gt;conv 1x1&lt;br&gt;&lt;/font&gt;" style="text;html=1;align=center;verticalAlign=middle;resizable=0;points=[];autosize=1;strokeColor=none;fillColor=none;" parent="1" vertex="1">
          <mxGeometry x="945" y="640" width="80" height="30" as="geometry" />
        </mxCell>
        <mxCell id="kov3exJGOiLsOatTBzYe-371" value="" style="rounded=1;whiteSpace=wrap;html=1;fillColor=none;" parent="1" vertex="1">
          <mxGeometry x="902.5" y="490" width="190" height="190" as="geometry" />
        </mxCell>
        <mxCell id="8XPRsAUVUknkGi7RhRSr-10" value="y1" style="ellipse;whiteSpace=wrap;html=1;aspect=fixed;" vertex="1" parent="1">
          <mxGeometry x="1120" y="230" width="30" height="30" as="geometry" />
        </mxCell>
        <mxCell id="8XPRsAUVUknkGi7RhRSr-13" style="edgeStyle=orthogonalEdgeStyle;rounded=0;orthogonalLoop=1;jettySize=auto;html=1;exitX=1;exitY=0.25;exitDx=0;exitDy=0;entryX=0.009;entryY=0.333;entryDx=0;entryDy=0;entryPerimeter=0;" edge="1" parent="1" source="kov3exJGOiLsOatTBzYe-350">
          <mxGeometry relative="1" as="geometry">
            <mxPoint x="1120.27" y="129.98999999999995" as="targetPoint" />
          </mxGeometry>
        </mxCell>
        <mxCell id="8XPRsAUVUknkGi7RhRSr-14" value="y0" style="ellipse;whiteSpace=wrap;html=1;aspect=fixed;" vertex="1" parent="1">
          <mxGeometry x="1120" y="120" width="30" height="30" as="geometry" />
        </mxCell>
        <mxCell id="8XPRsAUVUknkGi7RhRSr-16" style="edgeStyle=orthogonalEdgeStyle;rounded=0;orthogonalLoop=1;jettySize=auto;html=1;entryX=0.013;entryY=0.813;entryDx=0;entryDy=0;entryPerimeter=0;" edge="1" parent="1" source="kov3exJGOiLsOatTBzYe-362" target="8XPRsAUVUknkGi7RhRSr-10">
          <mxGeometry relative="1" as="geometry" />
        </mxCell>
      </root>
    </mxGraphModel>
  </diagram>
</mxfile>
